<svg width="32" height="32" viewBox="0 0 32 32" fill="none" xmlns="http://www.w3.org/2000/svg">
<path fill-rule="evenodd" clip-rule="evenodd" d="M2.15385 9.72C1.38462 11.5333 1 13.56 1 15.8C1 18.04 1.35897 20.0933 2.07692 21.96C2.82051 23.8 3.85897 25.4 5.19231 26.76C6.52564 28.12 8.10257 29.16 9.92308 29.88C11.7692 30.6267 13.7949 31 16 31C18.2051 31 20.2179 30.6267 22.0385 29.88C23.8846 29.16 25.4744 28.12 26.8077 26.76C28.141 25.4 29.1667 23.8 29.8846 21.96C30.6282 20.0933 31 18.04 31 15.8C31 13.56 30.6282 11.5333 29.8846 9.72C29.141 7.90667 28.0897 6.34667 26.7308 5.04C25.3718 3.73333 23.7821 2.73333 21.9615 2.04C20.141 1.34667 18.1538 1 16 1C13.8974 1 11.9359 1.34667 10.1154 2.04C8.29487 2.73333 6.70513 3.73333 5.34615 5.04C3.98718 6.34667 2.92308 7.90667 2.15385 9.72Z" fill="black"/>
<path d="M22.4988 11.8297H28.6023L28.2194 14.1036H22.0919L22.4988 11.8297ZM24.8923 8H27.4534L24.8684 22.8401H22.403L24.8923 8Z" fill="#60A5FA"/>
<path d="M19.3352 11.8297H22.2793L17.5639 17.2631L20.6995 22.8401H17.9469L15.9363 19.0104L12.8486 22.8401H9.85669L14.8592 17.0237L11.8673 11.8297H14.6917L16.4868 15.2764L19.3352 11.8297Z" fill="#60A5FA"/>
<path d="M5.41197 11.8297H11.5155L11.1326 14.1036H5.00507L5.41197 11.8297ZM7.80553 8H10.3666L7.78159 22.8401H5.31623L7.80553 8Z" fill="#60A5FA"/>
</svg>
